<svg xmlns="http://www.w3.org/2000/svg" version="1.1" xmlns:xlink="http://www.w3.org/1999/xlink" xmlns:svgjs="http://svgjs.dev/svgjs" width="1000" height="1000" viewBox="0 0 1000 1000"><g transform="matrix(1,0,0,1,-0.49999999999994316,-0.499639397680653)"><svg viewBox="0 0 280 280" data-background-color="#ffffff" preserveAspectRatio="xMidYMid meet" height="1000" width="1000" xmlns="http://www.w3.org/2000/svg" xmlns:xlink="http://www.w3.org/1999/xlink"><defs></defs><g id="tight-bounds" transform="matrix(1,0,0,1,0.13999999999998636,0.14010096864942057)"><svg viewBox="0 0 279.72 279.72" height="279.72" width="279.72"><g><svg viewBox="0 0 279.72 279.72" height="279.72" width="279.72"><g><svg viewBox="0 0 279.72 279.72" height="279.72" width="279.72"><g><svg viewBox="0 0 279.72 279.72" height="279.72" width="279.72"><g><svg viewBox="0 0 279.72 279.72" height="279.72" width="279.72"><g transform="matrix(1,0,0,1,57.61076786568435,57.44670465270789)"><svg viewBox="0 0 164.49846426863132 164.82659069458424" height="164.82659069458424" width="164.49846426863132"><g><circle r="82" cx="82.41329534729213" cy="82.41329534729213" fill="#8d021f" data-fill-palette-color="accent"></circle><svg xmlns="http://www.w3.org/2000/svg" xmlns:xlink="http://www.w3.org/1999/xlink" version="1.1" x="24.653761288920563" y="24.653761288920556" viewBox="10.800000190734863 0.09200000762939453 76.95421600341797 100.0009994506836" enable-background="new 0 0 100 100" xml:space="preserve" width="115.19094169079018" height="115.51906811674313" class="icon-o-0" data-fill-palette-color="quaternary" id="o-0"><path fill="#ffffff" d="M74.907 65.612l-0.03-6.117 0.237-0.312c1.37-1.82 2.63-3.707 3.746-5.599 3.204-5.422 5.532-11.278 6.916-17.408l0.352-1.557 0.896-3.163c1.554-9.862 0.617-20.073-2.709-29.522 0 0-0.361-1.022-0.649-1.842-0.855 0.143-1.923 0.319-1.923 0.319C71.86 2.062 62.467 6.17 54.58 12.295l-2.339 2.309-1.193 1.059c-4.698 4.174-8.706 9.039-11.908 14.462-1.177 1.991-2.268 4.115-3.237 6.315l-0.16 0.36-5.004 2.727c-6.113 3.328-11.154 8.256-14.635 14.148-1.861 3.151-3.278 6.577-4.173 10.185-0.735 2.968-1.114 6.025-1.124 9.093 0 0-0.004 1.011-0.007 1.822 1.101 0.273 3.66 0.906 5.042 1.248 0.286-1.331 0.773-3.595 0.773-3.595 0.45-1.816 1.156-3.525 2.079-5.089 2.318-3.926 6.017-6.937 10.534-8.428l1.545-0.511-0.02 1.629-0.008 1.468 0.022 1.807-0.753 0.29c-3.111 1.199-5.786 3.24-7.733 5.905 0 0-0.84 1.148-1.514 2.066L50.913 89.37c0.479-1.031 1.08-2.318 1.08-2.318 1.322-2.847 1.848-5.998 1.511-9.114l-0.08-0.777 2.011-1.076 1.467-0.822 1.422-0.717 0.308 1.57c0.927 4.719 0.087 9.465-2.271 13.457-0.941 1.593-2.122 3.065-3.529 4.367 0 0-1.655 1.438-2.647 2.3 0.686 0.781 1.542 1.755 1.542 1.755s1.224 1.327 1.938 2.098c0.708-0.395 1.594-0.886 1.594-0.886 2.671-1.483 5.168-3.29 7.419-5.373 2.727-2.523 5.042-5.417 6.903-8.568C73.062 79.37 74.943 72.576 74.907 65.612zM15.742 65.494c-0.004 0.013-0.011 0.025-0.017 0.035-0.004 0.008-0.012 0.017-0.018 0.025-0.002 0.003-0.002 0.003-0.002 0.003-0.317 0.538-0.572 1.124-0.841 1.695 0.143-0.873 0.269-1.753 0.481-2.613 0.812-3.261 2.085-6.354 3.762-9.203 0.44-0.749 0.917-1.478 1.415-2.187 0.035-0.048 0.069-0.095 0.104-0.143 1.539-2.16 3.332-4.134 5.331-5.895 1.254-1.102 6.268-4.415 7.671-5.342-0.807 2.796-2.741 11.66-2.834 12.63C25.727 56.315 18.394 61.008 15.742 65.494zM60.959 12.158c6.184-3.963 13.1-6.73 20.351-8.078 2.097 6.32 3.034 12.965 2.846 19.587-0.053 1.811-0.178 3.623-0.401 5.424-2.733-1.615-22.785-13.46-25.524-15.076C59.121 13.367 60.033 12.75 60.959 12.158zM49.31 84.296c-2.115-1.251-21.208-12.526-23.325-13.777 0.166-0.181 0.336-0.357 0.511-0.531 0.041-0.04 0.082-0.082 0.121-0.121 0.208-0.199 0.418-0.393 0.638-0.583 1.219-1.055 2.613-1.896 4.154-2.475l18.535 10.949c0.251 1.713 0.173 3.423-0.21 5.076C49.62 83.326 49.479 83.815 49.31 84.296zM51.252 74.863c-1.113-0.657-16.195-9.565-17.308-10.223-0.245-10.996 3.036-23.996 8.212-32.775 0.693-1.172 1.429-2.313 2.204-3.428 0.669-0.967 1.373-1.904 2.1-2.823 0.198-0.249 0.392-0.503 0.593-0.754 0.049-0.06 0.104-0.12 0.156-0.181 1.767-2.14 6.013-6.602 8.729-8.357l27.163 16.043c-0.637 2.701-1.627 8.025-3.367 11.525-0.036 0.07-0.058 0.15-0.083 0.224-0.121 0.299-0.25 0.591-0.373 0.884-0.456 1.08-0.937 2.149-1.459 3.202-0.6 1.207-1.24 2.396-1.928 3.565C70.698 60.549 62.096 70.418 51.252 74.863zM65.424 85.298c-0.115 0.167-0.231 0.335-0.351 0.5-0.322 0.456-0.654 0.9-0.999 1.338-0.229 0.293-0.465 0.582-0.704 0.867-0.315 0.378-0.634 0.753-0.967 1.115-0.147 0.169-0.301 0.334-0.453 0.495-0.519 0.55-1.05 1.088-1.607 1.603-0.649 0.604-1.358 1.135-2.053 1.687 0.37-0.516 0.757-1.02 1.075-1.56 0.01-0.013 0.016-0.028 0.024-0.044 0.003-0.006 0.009-0.013 0.011-0.018 0.027-0.045 0.051-0.097 0.078-0.145 0.248-0.428 0.478-0.861 0.693-1.306 0.124-0.248 0.236-0.5 0.35-0.755 0.104-0.233 0.202-0.466 0.296-0.701 0.135-0.326 0.263-0.656 0.379-0.988 0.016-0.036 0.024-0.072 0.036-0.108 1.209-3.504 0.87-10.015 0.259-13.823 3.268-2.241 7.646-6.509 10.447-9.305-0.091 1.136-0.947 6.66-1.139 7.776-0.524 2.988-1.419 5.884-2.679 8.616-0.084 0.184-0.171 0.364-0.258 0.544-0.144 0.297-0.289 0.591-0.439 0.883-0.231 0.438-0.467 0.871-0.717 1.299-0.034 0.058-0.064 0.119-0.098 0.179C66.234 84.075 65.834 84.69 65.424 85.298zM67.765 11.765c-1.045-0.617-2.4-0.269-3.02 0.78-0.618 1.047-0.269 2.4 0.778 3.02s2.401 0.271 3.021-0.776C69.162 13.739 68.813 12.383 67.765 11.765zM66.112 14.564c-0.495-0.292-0.662-0.934-0.369-1.43 0.295-0.498 0.936-0.661 1.431-0.368 0.497 0.293 0.666 0.934 0.372 1.432C67.251 14.695 66.61 14.858 66.112 14.564zM80.971 19.564c-1.05-0.619-2.403-0.271-3.022 0.778-0.619 1.047-0.271 2.4 0.779 3.021 1.047 0.618 2.402 0.271 3.02-0.776C82.367 21.539 82.018 20.184 80.971 19.564zM79.316 22.365c-0.496-0.295-0.661-0.936-0.368-1.432 0.293-0.499 0.934-0.662 1.431-0.367 0.497 0.291 0.663 0.932 0.37 1.43C80.454 22.492 79.813 22.658 79.316 22.365zM74.622 15.814c-1.047-0.619-2.403-0.27-3.023 0.778-0.618 1.047-0.269 2.4 0.779 3.021 1.046 0.617 2.402 0.271 3.021-0.777C76.018 17.788 75.669 16.433 74.622 15.814zM72.968 18.614c-0.496-0.293-0.662-0.936-0.369-1.431 0.295-0.498 0.936-0.662 1.431-0.368 0.496 0.293 0.665 0.934 0.369 1.432C74.105 18.744 73.463 18.906 72.968 18.614zM64.952 31.776c-3.85-2.274-8.833-0.992-11.106 2.856-2.272 3.848-0.991 8.833 2.859 11.105 3.85 2.274 8.833 0.99 11.106-2.857S68.801 34.05 64.952 31.776zM57.296 44.738c-3.298-1.949-4.397-6.217-2.45-9.515 1.949-3.299 6.218-4.396 9.516-2.447 3.299 1.947 4.397 6.215 2.449 9.515C64.863 45.589 60.596 46.687 57.296 44.738z" data-fill-palette-color="quaternary"></path></svg></g></svg></g><path d="M8.369 97.134l0.226-0.956 16.154 14.767c0.326 0.276 0.543 0.592 0.652 0.949 0.109 0.356 0.1 0.713-0.029 1.07v0c-0.186 0.517-0.472 0.85-0.857 0.999-0.385 0.149-0.806 0.156-1.261 0.021v0c-0.166-0.06-0.341-0.163-0.526-0.308v0l-18.391-16.719c-0.336-0.308-0.551-0.66-0.647-1.054-0.098-0.388-0.069-0.767 0.086-1.137v0c0.126-0.351 0.35-0.641 0.67-0.871 0.327-0.228 0.701-0.346 1.121-0.353v0l24.474-1.159c0.27-0.011 0.52 0.025 0.75 0.108v0c0.517 0.186 0.873 0.506 1.071 0.959 0.195 0.459 0.216 0.899 0.064 1.32v0c-0.126 0.351-0.354 0.633-0.683 0.846-0.329 0.213-0.694 0.326-1.095 0.34v0zM24.625 95.598l-4.373 12.139-2.804-2.804 3.587-9.958zM21.333 63.24v0c0.516-0.336 1.042-0.399 1.579-0.19 0.543 0.213 0.926 0.599 1.15 1.159v0c0.183 0.427 0.187 0.841 0.01 1.24-0.174 0.408-0.463 0.738-0.867 0.99v0c-0.692 0.437-1.333 0.943-1.924 1.517-0.594 0.58-1.118 1.26-1.57 2.04v0c-0.71 1.226-1.151 2.447-1.323 3.664-0.169 1.211-0.086 2.386 0.248 3.527 0.33 1.147 0.894 2.202 1.692 3.166 0.794 0.969 1.807 1.81 3.038 2.523v0c1.355 0.785 2.676 1.276 3.964 1.474 1.282 0.194 2.492 0.139 3.632-0.164 1.149-0.306 2.183-0.847 3.102-1.623 0.925-0.772 1.719-1.73 2.381-2.874v0c0.425-0.733 0.756-1.501 0.994-2.303 0.232-0.806 0.355-1.62 0.368-2.442v0c0.031-0.499 0.183-0.924 0.457-1.275 0.276-0.341 0.645-0.539 1.107-0.593v0c0.662-0.102 1.198 0.028 1.606 0.391 0.406 0.368 0.598 0.848 0.577 1.438v0c-0.013 0.713-0.098 1.455-0.255 2.226-0.16 0.777-0.369 1.537-0.627 2.28-0.258 0.743-0.588 1.461-0.989 2.153v0c-0.897 1.548-2.004 2.865-3.322 3.951-1.32 1.076-2.789 1.867-4.405 2.372-1.616 0.505-3.327 0.646-5.133 0.422-1.8-0.22-3.626-0.867-5.48-1.94v0c-1.666-0.965-3.039-2.144-4.119-3.537-1.084-1.388-1.832-2.902-2.245-4.544-0.422-1.639-0.514-3.325-0.277-5.06 0.243-1.731 0.845-3.427 1.807-5.086v0c0.601-1.038 1.315-1.972 2.14-2.803 0.829-0.836 1.724-1.536 2.684-2.099zM62.293 56.104v0c0.301-0.331 0.707-0.512 1.219-0.542 0.512-0.02 0.944 0.129 1.296 0.448v0c0.387 0.351 0.592 0.866 0.615 1.547 0.023 0.68-0.082 1.427-0.316 2.239-0.234 0.813-0.553 1.598-0.958 2.357-0.4 0.763-0.834 1.403-1.303 1.921v0c-1.025 1.129-1.969 1.943-2.833 2.441-0.854 0.497-1.638 0.862-2.351 1.093-0.713 0.231-1.385 0.473-2.016 0.724-0.631 0.251-1.231 0.691-1.8 1.318v0c-0.319 0.351-0.523 0.688-0.613 1.009-0.09 0.321-0.184 0.657-0.283 1.007-0.098 0.35-0.313 0.709-0.645 1.075v0c-0.355 0.392-0.797 0.581-1.326 0.569-0.533-0.008-0.975-0.171-1.327-0.49v0c-0.592-0.537-0.745-1.166-0.458-1.885v0l2.903-7.21 2.733-2.119-2.768 6.728 0.326-1.873c0.619-0.683 1.271-1.194 1.955-1.535 0.679-0.345 1.375-0.638 2.088-0.879 0.712-0.251 1.404-0.543 2.074-0.878 0.675-0.33 1.322-0.837 1.941-1.519v0c0.519-0.572 0.861-1.136 1.026-1.691 0.17-0.56 0.278-1.052 0.325-1.477v0c0.066-0.517 0.108-0.977 0.127-1.381 0.014-0.409 0.137-0.741 0.369-0.997zM51.127 46.879v0c1.401 1.271 2.496 2.686 3.287 4.245 0.791 1.56 1.258 3.168 1.4 4.827 0.138 1.663-0.056 3.299-0.582 4.908-0.531 1.605-1.417 3.09-2.655 4.455v0c-1.225 1.35-2.611 2.368-4.156 3.053-1.55 0.68-3.158 1.029-4.822 1.047-1.669 0.024-3.313-0.288-4.933-0.933-1.62-0.646-3.13-1.604-4.53-2.875v0c-1.406-1.275-2.508-2.688-3.308-4.237-0.8-1.549-1.269-3.156-1.408-4.819-0.143-1.658 0.049-3.292 0.575-4.901 0.531-1.605 1.41-3.082 2.635-4.433v0c1.239-1.365 2.631-2.39 4.177-3.075 1.55-0.68 3.16-1.032 4.829-1.055 1.664-0.018 3.311 0.29 4.939 0.926 1.629 0.636 3.146 1.591 4.552 2.867zM48.415 49.868v0c-1.37-1.243-2.849-2.086-4.435-2.527-1.581-0.446-3.123-0.472-4.625-0.077-1.497 0.389-2.815 1.212-3.954 2.466v0c-1.125 1.24-1.809 2.624-2.051 4.153-0.242 1.528-0.068 3.05 0.524 4.566 0.597 1.521 1.588 2.91 2.974 4.167v0c1.365 1.239 2.836 2.084 4.413 2.536 1.577 0.451 3.114 0.482 4.611 0.092 1.497-0.389 2.809-1.204 3.934-2.444v0c1.139-1.255 1.829-2.647 2.072-4.175 0.247-1.533 0.072-3.065-0.526-4.595-0.593-1.536-1.572-2.923-2.937-4.162zM62.186 21.938v0c0.44-0.328 0.9-0.442 1.38-0.342 0.475 0.094 0.877 0.361 1.205 0.802v0l8.46 11.371c1.19 1.599 1.903 3.29 2.14 5.073 0.237 1.784 0.01 3.482-0.682 5.096-0.694 1.623-1.84 3.029-3.439 4.218v0c-1.577 1.173-3.248 1.863-5.012 2.069-1.755 0.207-3.455-0.057-5.101-0.792-1.651-0.732-3.071-1.897-4.261-3.496v0l-8.461-11.371c-0.328-0.44-0.449-0.916-0.364-1.427 0.081-0.516 0.363-0.954 0.847-1.314v0c0.375-0.279 0.83-0.389 1.363-0.33 0.524 0.058 0.951 0.307 1.279 0.747v0l8.46 11.371c0.789 1.06 1.711 1.811 2.765 2.251 1.058 0.446 2.145 0.601 3.26 0.464 1.113-0.127 2.111-0.519 2.992-1.174v0c0.963-0.716 1.676-1.597 2.139-2.643 0.468-1.041 0.651-2.14 0.55-3.298-0.097-1.153-0.54-2.259-1.33-3.32v0l-8.46-11.371c-0.328-0.44-0.474-0.898-0.438-1.372 0.032-0.48 0.268-0.884 0.708-1.212zM75.415 16.722l10.667 19.649c0.244 0.492 0.284 0.991 0.118 1.498-0.174 0.503-0.491 0.879-0.949 1.128v0c-0.5 0.272-0.997 0.337-1.49 0.196-0.49-0.15-0.866-0.467-1.129-0.949v0l-10.666-19.65c-0.262-0.483-0.316-0.974-0.164-1.473 0.156-0.494 0.499-0.884 1.03-1.172v0c0.435-0.236 0.908-0.288 1.419-0.157 0.514 0.137 0.902 0.447 1.164 0.93zM99.027 33.819v0c-1.68 0.634-3.262 0.964-4.746 0.988-1.481 0.03-3.021-0.269-4.62-0.897v0c-0.323-0.088-0.598-0.241-0.826-0.46-0.236-0.222-0.407-0.473-0.512-0.752v0c-0.168-0.444-0.152-0.902 0.046-1.376 0.192-0.471 0.535-0.8 1.029-0.986v0c0.374-0.141 0.771-0.146 1.19-0.015v0c1.197 0.483 2.359 0.75 3.487 0.803 1.124 0.061 2.34-0.155 3.646-0.648v0c0.932-0.352 1.734-0.829 2.406-1.43 0.665-0.599 1.132-1.242 1.401-1.931 0.275-0.691 0.285-1.375 0.029-2.054v0c-0.316-0.837-0.818-1.437-1.506-1.801-0.684-0.372-1.544-0.569-2.581-0.59-1.031-0.024-2.225 0.076-3.583 0.298v0c-1.246 0.231-2.399 0.333-3.46 0.307-1.061-0.027-2.025-0.203-2.894-0.527-0.869-0.324-1.63-0.815-2.284-1.474-0.65-0.667-1.173-1.524-1.569-2.571v0c-0.536-1.42-0.624-2.786-0.263-4.095 0.36-1.31 1.076-2.486 2.146-3.527 1.068-1.048 2.407-1.876 4.018-2.484v0c1.471-0.555 2.933-0.847 4.386-0.874 1.46-0.029 2.731 0.19 3.813 0.658v0c0.742 0.278 1.22 0.699 1.434 1.263v0c0.158 0.419 0.137 0.872-0.063 1.36-0.206 0.491-0.531 0.82-0.975 0.988v0c-0.323 0.122-0.638 0.132-0.944 0.03v0c-0.523-0.252-1.158-0.418-1.905-0.498-0.745-0.074-1.515-0.08-2.311-0.018-0.792 0.053-1.514 0.202-2.168 0.448v0c-1.046 0.395-1.889 0.88-2.526 1.454-0.638 0.574-1.059 1.186-1.264 1.836-0.208 0.658-0.185 1.323 0.069 1.995v0c0.299 0.793 0.774 1.36 1.425 1.701 0.65 0.341 1.441 0.517 2.373 0.528 0.935 0.002 1.978-0.066 3.129-0.203v0c1.386-0.205 2.653-0.324 3.799-0.359 1.146-0.034 2.172 0.093 3.078 0.381 0.91 0.28 1.706 0.758 2.389 1.435 0.677 0.679 1.244 1.624 1.701 2.836v0c0.529 1.401 0.595 2.775 0.197 4.12-0.395 1.352-1.13 2.564-2.203 3.636-1.073 1.072-2.403 1.907-3.988 2.505zM108.781 5.004l5.493 21.673c0.115 0.537 0.03 1.031-0.255 1.48-0.293 0.445-0.692 0.731-1.198 0.86v0c-0.552 0.14-1.049 0.081-1.492-0.178-0.438-0.267-0.725-0.666-0.86-1.198v0l-5.492-21.673c-0.135-0.532-0.067-1.022 0.205-1.468 0.273-0.44 0.702-0.734 1.287-0.882v0c0.48-0.122 0.951-0.056 1.413 0.198 0.464 0.26 0.764 0.656 0.899 1.188zM127.826 27.064v0c-0.6 0.063-1.097-0.066-1.492-0.386-0.395-0.327-0.622-0.763-0.679-1.309v0l-2.33-22.277 3.974-0.416 2.33 22.277c0.057 0.546-0.087 1.021-0.433 1.426-0.347 0.397-0.803 0.626-1.37 0.685zM133.95 3.708l-16.918 1.77c-0.526 0.055-0.991-0.063-1.397-0.355-0.406-0.298-0.638-0.72-0.695-1.267v0c-0.054-0.519 0.087-0.96 0.424-1.322 0.337-0.362 0.768-0.571 1.295-0.626v0l16.917-1.77c0.526-0.055 0.985 0.067 1.378 0.367 0.392 0.293 0.615 0.702 0.67 1.228v0c0.057 0.546-0.076 0.996-0.4 1.351-0.323 0.361-0.748 0.569-1.274 0.624zM145.417 1.932l-0.238 22.357c-0.026 0.549-0.234 1.004-0.624 1.366-0.397 0.355-0.856 0.53-1.379 0.524v0c-0.569-0.006-1.035-0.191-1.397-0.554-0.355-0.37-0.53-0.829-0.524-1.378v0l0.238-22.357c0.006-0.549 0.197-1.005 0.574-1.367 0.377-0.355 0.867-0.53 1.469-0.523v0c0.495 0.005 0.933 0.19 1.316 0.553 0.382 0.37 0.571 0.83 0.565 1.379zM175.324 18.033v0c-0.324 1.863-0.933 3.546-1.827 5.049-0.894 1.503-2.003 2.758-3.327 3.766-1.331 1.007-2.817 1.719-4.457 2.136-1.64 0.41-3.368 0.457-5.185 0.142v0c-1.796-0.312-3.397-0.938-4.803-1.877-1.404-0.946-2.56-2.116-3.466-3.512-0.913-1.397-1.53-2.952-1.852-4.666-0.321-1.714-0.32-3.502 0.004-5.366v0c0.325-1.87 0.928-3.557 1.808-5.062 0.881-1.505 1.986-2.761 3.317-3.769 1.324-1.008 2.807-1.721 4.448-2.137 1.64-0.41 3.358-0.459 5.154-0.147v0c1.816 0.316 3.427 0.943 4.833 1.882 1.404 0.946 2.563 2.117 3.476 3.514 0.906 1.396 1.527 2.952 1.862 4.668 0.335 1.716 0.34 3.509 0.015 5.379zM171.347 17.342v0c0.317-1.823 0.237-3.523-0.239-5.098-0.469-1.574-1.273-2.89-2.41-3.948-1.131-1.056-2.531-1.73-4.2-2.02v0c-1.65-0.287-3.185-0.123-4.605 0.49-1.421 0.613-2.613 1.576-3.577 2.887-0.965 1.318-1.608 2.899-1.928 4.743v0c-0.316 1.816-0.242 3.511 0.221 5.084 0.463 1.573 1.259 2.888 2.39 3.945 1.131 1.056 2.521 1.728 4.17 2.014v0c1.67 0.29 3.215 0.128 4.635-0.484 1.427-0.612 2.627-1.58 3.6-2.904 0.98-1.323 1.627-2.892 1.943-4.709zM203.278 15.039v0c0.466 0.186 0.781 0.494 0.945 0.924 0.167 0.424 0.157 0.869-0.028 1.335v0l-8.332 20.912c-0.203 0.51-0.543 0.867-1.018 1.072-0.467 0.201-0.955 0.2-1.465-0.004v0c-0.233-0.093-0.463-0.239-0.69-0.439-0.229-0.194-0.381-0.4-0.454-0.618v0l-6.901-24.213 0.974-0.137-7.132 17.899c-0.176 0.441-0.473 0.756-0.891 0.947-0.428 0.194-0.875 0.199-1.341 0.013v0c-0.485-0.193-0.809-0.505-0.974-0.935-0.167-0.424-0.162-0.856 0.014-1.297v0l8.347-20.95c0.213-0.535 0.557-0.894 1.031-1.077 0.477-0.189 0.961-0.186 1.452 0.009v0c0.252 0.1 0.501 0.262 0.748 0.484 0.25 0.216 0.402 0.456 0.458 0.719v0l6.706 23.686-0.715 0.284 7.019-17.615c0.186-0.466 0.491-0.793 0.916-0.982 0.428-0.194 0.871-0.2 1.331-0.016zM204.943 47.178v0c-1.499-0.99-2.693-2.078-3.582-3.266-0.893-1.182-1.554-2.605-1.982-4.268v0c-0.118-0.313-0.155-0.626-0.111-0.939 0.042-0.322 0.145-0.607 0.309-0.856v0c0.261-0.396 0.642-0.652 1.141-0.769 0.494-0.121 0.961-0.035 1.403 0.256v0c0.334 0.22 0.57 0.539 0.709 0.955v0c0.31 1.253 0.775 2.351 1.394 3.296 0.61 0.947 1.497 1.804 2.663 2.574v0c0.832 0.549 1.688 0.919 2.568 1.11 0.875 0.188 1.67 0.189 2.386 0.003 0.721-0.182 1.281-0.576 1.681-1.18v0c0.493-0.747 0.685-1.505 0.576-2.276-0.099-0.772-0.444-1.585-1.035-2.437-0.585-0.849-1.365-1.758-2.342-2.728v0c-0.918-0.874-1.676-1.748-2.276-2.623-0.6-0.875-1.023-1.76-1.27-2.654-0.247-0.894-0.295-1.799-0.145-2.715 0.159-0.918 0.547-1.844 1.163-2.777v0c0.836-1.267 1.891-2.139 3.163-2.614 1.272-0.476 2.644-0.586 4.116-0.329 1.475 0.251 2.931 0.85 4.368 1.798v0c1.312 0.866 2.406 1.88 3.279 3.042 0.88 1.165 1.447 2.324 1.703 3.475v0c0.21 0.764 0.149 1.398-0.183 1.902v0c-0.246 0.373-0.626 0.622-1.139 0.746-0.518 0.121-0.975 0.051-1.371-0.21v0c-0.289-0.19-0.481-0.44-0.579-0.748v0c-0.102-0.571-0.34-1.183-0.714-1.835-0.377-0.647-0.824-1.275-1.339-1.883-0.507-0.611-1.051-1.108-1.634-1.493v0c-0.933-0.616-1.82-1.014-2.659-1.195-0.839-0.18-1.582-0.163-2.228 0.053-0.655 0.217-1.181 0.626-1.576 1.225v0c-0.467 0.707-0.648 1.424-0.543 2.151 0.105 0.727 0.426 1.471 0.963 2.232 0.547 0.759 1.213 1.564 2 2.416v0c0.978 1.003 1.817 1.959 2.517 2.868 0.7 0.909 1.198 1.814 1.496 2.717 0.307 0.901 0.386 1.827 0.238 2.777-0.154 0.946-0.587 1.96-1.3 3.04v0c-0.825 1.25-1.899 2.109-3.223 2.575-1.327 0.472-2.739 0.588-4.237 0.347-1.498-0.241-2.953-0.829-4.368-1.763zM218.799 56.901v0c-0.29 0.341-0.716 0.659-1.279 0.954-0.558 0.29-1.163 0.519-1.813 0.687-0.65 0.168-1.273 0.225-1.868 0.173-0.6-0.048-1.099-0.241-1.497-0.579v0c-0.305-0.259-0.505-0.563-0.6-0.911-0.1-0.343-0.005-0.685 0.285-1.026v0c0.338-0.398 0.669-0.525 0.994-0.383 0.319 0.138 0.624 0.25 0.914 0.337v0c0.357 0.072 0.695 0.067 1.016-0.016 0.325-0.089 0.599-0.265 0.823-0.528v0c0.18-0.212 0.249-0.465 0.205-0.76-0.044-0.304-0.208-0.577-0.491-0.819v0c-0.114-0.097-0.253-0.189-0.419-0.276-0.167-0.097-0.34-0.155-0.519-0.175v0c-0.091-0.238-0.137-0.472-0.136-0.703 0.001-0.231 0.113-0.478 0.337-0.741v0c0.307-0.361 0.704-0.576 1.188-0.644 0.475-0.067 0.967-0.023 1.475 0.134 0.508 0.156 0.922 0.37 1.242 0.642v0c0.723 0.615 1.11 1.327 1.16 2.136 0.051 0.809-0.288 1.641-1.017 2.498zM249.113 54.001l-16.798 14.755c-0.426 0.347-0.904 0.496-1.434 0.447-0.529-0.058-0.966-0.283-1.311-0.675v0c-0.376-0.428-0.549-0.898-0.521-1.41 0.038-0.511 0.263-0.948 0.676-1.311v0l16.798-14.755c0.412-0.362 0.879-0.524 1.4-0.486 0.516 0.043 0.973 0.291 1.371 0.745v0c0.327 0.372 0.482 0.821 0.468 1.348-0.02 0.532-0.236 0.979-0.649 1.342zM266.12 76.079v0c0.273 0.421 0.352 0.854 0.236 1.301-0.109 0.442-0.374 0.8-0.795 1.072v0l-18.893 12.239c-0.461 0.298-0.944 0.394-1.45 0.285-0.497-0.106-0.894-0.39-1.193-0.851v0c-0.136-0.21-0.239-0.463-0.309-0.757-0.075-0.291-0.079-0.546-0.013-0.767v0l8.376-23.742 0.874 0.451-16.17 10.475c-0.398 0.258-0.823 0.344-1.276 0.257-0.461-0.089-0.828-0.344-1.101-0.765v0c-0.284-0.438-0.368-0.88-0.253-1.326 0.109-0.442 0.363-0.792 0.761-1.05v0l18.927-12.261c0.484-0.313 0.972-0.407 1.465-0.282 0.499 0.121 0.891 0.404 1.179 0.847v0c0.147 0.228 0.258 0.504 0.33 0.828 0.078 0.321 0.064 0.604-0.042 0.851v0l-8.231 23.201-0.748-0.182 15.915-10.31c0.421-0.273 0.859-0.363 1.315-0.27 0.461 0.089 0.827 0.341 1.096 0.756zM275.939 104.197v0c-0.066 0.612-0.349 1.06-0.85 1.344-0.508 0.286-1.049 0.339-1.625 0.158v0c-0.447-0.128-0.77-0.386-0.968-0.775-0.207-0.393-0.28-0.825-0.219-1.298v0c0.098-0.813 0.112-1.629 0.039-2.45-0.074-0.827-0.271-1.662-0.589-2.506v0c-0.502-1.325-1.169-2.438-2.004-3.34-0.832-0.895-1.796-1.574-2.891-2.036-1.098-0.469-2.272-0.698-3.522-0.689-1.253 0.003-2.545 0.257-3.876 0.761v0c-1.464 0.554-2.68 1.268-3.647 2.141-0.96 0.871-1.683 1.844-2.167 2.919-0.488 1.084-0.722 2.227-0.702 3.43 0.014 1.205 0.255 2.426 0.723 3.661v0c0.3 0.792 0.686 1.534 1.158 2.226 0.478 0.689 1.031 1.298 1.66 1.828v0c0.368 0.339 0.601 0.726 0.699 1.159 0.09 0.43 0.01 0.841-0.24 1.233v0c-0.339 0.578-0.779 0.911-1.318 0.999-0.542 0.082-1.035-0.072-1.479-0.462v0c-0.544-0.461-1.065-0.995-1.564-1.604-0.501-0.615-0.958-1.257-1.371-1.927-0.413-0.67-0.761-1.379-1.044-2.127v0c-0.634-1.674-0.955-3.364-0.963-5.071 0-1.703 0.315-3.341 0.945-4.913 0.63-1.572 1.602-2.987 2.915-4.246 1.307-1.256 2.963-2.263 4.966-3.021v0c1.8-0.682 3.582-1.001 5.345-0.958 1.761 0.037 3.407 0.413 4.939 1.13 1.537 0.708 2.902 1.703 4.097 2.983 1.188 1.282 2.122 2.82 2.802 4.614v0c0.425 1.122 0.698 2.265 0.82 3.43 0.124 1.171 0.101 2.306-0.069 3.407zM22.223 193.145v0c-1.16 0.379-2.274 0.548-3.344 0.506-1.069-0.042-2.055-0.276-2.957-0.701-0.909-0.423-1.693-1.011-2.354-1.765-0.662-0.76-1.167-1.669-1.512-2.726v0c-0.346-1.056-0.475-2.084-0.388-3.082 0.085-1.005 0.369-1.946 0.851-2.825 0.476-0.876 1.133-1.647 1.971-2.314 0.837-0.666 1.836-1.189 2.995-1.568v0c1.153-0.377 2.264-0.545 3.334-0.503 1.069 0.042 2.058 0.275 2.967 0.698 0.909 0.423 1.694 1.015 2.357 1.775 0.66 0.754 1.163 1.659 1.509 2.715v0c0.346 1.056 0.476 2.087 0.392 3.092-0.087 0.998-0.372 1.937-0.855 2.816-0.483 0.878-1.143 1.651-1.981 2.316-0.837 0.666-1.833 1.188-2.985 1.566zM21.925 192.237v0c1.385-0.453 2.511-1.121 3.378-2.004 0.86-0.881 1.425-1.889 1.695-3.026 0.27-1.137 0.201-2.327-0.206-3.57v0c-0.401-1.224-1.047-2.218-1.938-2.982-0.892-0.764-1.946-1.25-3.163-1.457-1.221-0.2-2.524-0.073-3.908 0.38v0c-1.385 0.453-2.511 1.121-3.378 2.004-0.858 0.887-1.421 1.902-1.688 3.045-0.268 1.143-0.201 2.327 0.199 3.551v0c0.407 1.243 1.055 2.244 1.945 3.001 0.89 0.757 1.942 1.237 3.156 1.438 1.221 0.2 2.524 0.073 3.908-0.38zM35.618 202.804v0c0.058 0.123 0.062 0.244 0.014 0.364-0.045 0.111-0.123 0.193-0.233 0.245v0l-8.916 4.191c-0.975 0.459-1.977 0.637-3.006 0.537-1.031-0.107-1.977-0.445-2.836-1.015-0.853-0.573-1.509-1.346-1.968-2.321v0c-0.459-0.975-0.639-1.98-0.541-3.015 0.107-1.031 0.45-1.975 1.028-2.832 0.576-0.862 1.351-1.523 2.327-1.981v0l8.916-4.192c0.11-0.052 0.224-0.057 0.341-0.014 0.12 0.033 0.212 0.117 0.276 0.252v0c0.061 0.129 0.067 0.253 0.018 0.374-0.042 0.117-0.119 0.202-0.229 0.253v0l-8.916 4.192c-0.822 0.386-1.48 0.939-1.973 1.658-0.491 0.725-0.781 1.524-0.872 2.398-0.085 0.871 0.063 1.712 0.444 2.522v0c0.386 0.822 0.941 1.475 1.662 1.959 0.728 0.482 1.528 0.765 2.4 0.85 0.871 0.085 1.718-0.066 2.539-0.453v0l8.916-4.191c0.11-0.052 0.224-0.057 0.342-0.015 0.12 0.033 0.21 0.111 0.267 0.234zM24.429 214.914v0c-0.08-0.126-0.105-0.247-0.074-0.362 0.033-0.125 0.101-0.221 0.204-0.286v0l12.7-8.072c0.103-0.065 0.217-0.082 0.343-0.048 0.127 0.023 0.224 0.087 0.289 0.189v0l3.228 5.08c0.48 0.755 0.75 1.515 0.811 2.28 0.06 0.765-0.071 1.475-0.394 2.129-0.323 0.655-0.816 1.193-1.479 1.615v0c-0.589 0.374-1.189 0.607-1.798 0.697-0.609 0.09-1.191 0.046-1.746-0.131-0.555-0.178-1.058-0.464-1.51-0.86v0l-0.413-0.99c0.327 0.515 0.506 1.088 0.538 1.718 0.031 0.631-0.112 1.252-0.43 1.864-0.32 0.621-0.846 1.164-1.579 1.629v0c-0.629 0.4-1.089 0.732-1.378 0.997-0.29 0.264-0.481 0.494-0.574 0.689-0.093 0.195-0.145 0.385-0.156 0.57v0c-0.004 0.107-0.031 0.204-0.08 0.291-0.049 0.087-0.134 0.149-0.255 0.186v0c-0.095 0.028-0.183 0.028-0.265 0-0.082-0.028-0.149-0.07-0.2-0.125-0.055-0.061-0.086-0.142-0.094-0.242v0c-0.01-0.243 0.032-0.518 0.126-0.827 0.091-0.299 0.312-0.64 0.662-1.023 0.351-0.383 0.918-0.824 1.702-1.322v0c0.606-0.385 1.027-0.785 1.261-1.2 0.244-0.412 0.371-0.826 0.38-1.241 0.007-0.406-0.061-0.797-0.203-1.172-0.144-0.366-0.302-0.684-0.472-0.953v0l-2.973-4.676 0.341 0.024-5.869 3.73c-0.103 0.065-0.218 0.086-0.346 0.063-0.122-0.027-0.221-0.101-0.297-0.221zM31.267 211.135l0.095-0.325 3.141 4.942c0.379 0.482 0.832 0.861 1.36 1.136 0.537 0.277 1.125 0.405 1.763 0.385 0.638-0.02 1.271-0.23 1.901-0.629v0c0.778-0.494 1.249-1.187 1.413-2.079 0.168-0.886-0.05-1.803-0.653-2.753v0l-2.961-4.66 0.197 0.007zM49.343 222.282l3.636 4.086c0.577 0.648 0.942 1.334 1.097 2.059 0.159 0.729 0.113 1.442-0.139 2.138-0.252 0.705-0.703 1.347-1.351 1.923v0c-0.633 0.563-1.325 0.938-2.075 1.125-0.746 0.192-1.482 0.175-2.208-0.05-0.727-0.215-1.379-0.647-1.955-1.295v0l-3.366-3.782 0.183-0.04-5.074 4.515c-0.091 0.081-0.204 0.118-0.338 0.11-0.133-0.017-0.241-0.072-0.322-0.163v0c-0.099-0.111-0.143-0.227-0.131-0.346 0.012-0.129 0.064-0.234 0.155-0.315v0l11.242-10.003c0.091-0.081 0.201-0.115 0.33-0.103 0.129 0.003 0.235 0.05 0.316 0.141zM43.666 227.877l3.366 3.783c0.464 0.522 0.977 0.864 1.539 1.026 0.562 0.162 1.14 0.165 1.735 0.008 0.59-0.162 1.139-0.469 1.645-0.92v0c0.527-0.469 0.89-0.973 1.089-1.513 0.195-0.546 0.234-1.098 0.119-1.657-0.111-0.563-0.399-1.106-0.863-1.628v0l-3.346-3.76 0.124-0.028-5.4 4.805zM47.237 243.15v0c-0.111-0.1-0.167-0.21-0.169-0.329-0.002-0.129 0.038-0.24 0.119-0.331v0l10.062-11.189c0.082-0.091 0.187-0.137 0.316-0.139 0.129-0.012 0.239 0.023 0.33 0.105v0l4.476 4.024c0.665 0.598 1.13 1.258 1.393 1.978 0.264 0.72 0.328 1.439 0.194 2.157-0.135 0.718-0.465 1.369-0.991 1.953v0c-0.467 0.519-0.982 0.904-1.544 1.155-0.563 0.251-1.135 0.365-1.717 0.343-0.582-0.022-1.144-0.162-1.685-0.422v0l-0.664-0.843c0.454 0.408 0.78 0.911 0.98 1.51 0.2 0.599 0.229 1.236 0.087 1.911-0.141 0.684-0.502 1.349-1.082 1.994v0c-0.499 0.554-0.852 0.998-1.06 1.33-0.208 0.333-0.33 0.605-0.367 0.819-0.037 0.213-0.036 0.41 0.003 0.59v0c0.025 0.104 0.025 0.205 0.002 0.303-0.024 0.097-0.089 0.18-0.196 0.248v0c-0.084 0.052-0.169 0.076-0.255 0.071-0.087-0.005-0.162-0.027-0.227-0.067-0.07-0.044-0.121-0.114-0.155-0.208v0c-0.075-0.231-0.109-0.508-0.102-0.83 0.007-0.312 0.128-0.7 0.363-1.164 0.235-0.464 0.662-1.041 1.283-1.731v0c0.48-0.534 0.778-1.032 0.893-1.495 0.124-0.463 0.135-0.895 0.032-1.297-0.102-0.393-0.273-0.751-0.511-1.075-0.237-0.314-0.475-0.577-0.711-0.79v0l-4.121-3.705 0.335-0.068-4.65 5.171c-0.082 0.091-0.187 0.142-0.316 0.154-0.124 0.007-0.24-0.038-0.345-0.133zM52.807 237.671l0.003-0.339 4.355 3.916c0.494 0.363 1.033 0.605 1.615 0.728 0.592 0.122 1.193 0.088 1.802-0.103 0.609-0.191 1.163-0.563 1.661-1.118v0c0.616-0.685 0.884-1.48 0.803-2.382-0.076-0.898-0.533-1.724-1.37-2.476v0l-4.105-3.692 0.191-0.046zM75.013 254.285v0c-0.69 1.006-1.473 1.817-2.348 2.433-0.875 0.616-1.8 1.029-2.775 1.24-0.979 0.216-1.959 0.225-2.942 0.028-0.988-0.201-1.94-0.617-2.857-1.245v0c-0.916-0.629-1.644-1.367-2.181-2.213-0.543-0.85-0.89-1.77-1.04-2.761-0.154-0.985-0.101-1.997 0.159-3.035 0.26-1.038 0.736-2.06 1.427-3.066v0c0.687-1 1.467-1.809 2.342-2.425 0.875-0.616 1.802-1.032 2.781-1.248 0.979-0.216 1.962-0.223 2.95-0.022 0.983 0.198 1.932 0.611 2.849 1.24v0c0.916 0.629 1.646 1.368 2.189 2.218 0.538 0.846 0.881 1.764 1.032 2.755 0.15 0.991 0.095 2.005-0.166 3.044-0.26 1.038-0.734 2.057-1.42 3.057zM74.225 253.745v0c0.825-1.202 1.313-2.416 1.465-3.644 0.148-1.222-0.016-2.366-0.492-3.433-0.476-1.067-1.254-1.97-2.332-2.711v0c-1.062-0.729-2.179-1.126-3.352-1.19-1.172-0.065-2.305 0.19-3.397 0.763-1.091 0.583-2.049 1.475-2.873 2.677v0c-0.825 1.202-1.313 2.416-1.465 3.644-0.143 1.226 0.027 2.374 0.509 3.444 0.482 1.071 1.254 1.97 2.315 2.699v0c1.079 0.74 2.201 1.141 3.368 1.202 1.167 0.061 2.294-0.197 3.381-0.775 1.091-0.583 2.049-1.475 2.873-2.676zM81.872 248.802l5.275 2.704c1.013 0.52 1.795 1.164 2.345 1.934 0.544 0.766 0.886 1.608 1.025 2.525 0.133 0.914 0.096 1.855-0.11 2.822-0.204 0.977-0.541 1.924-1.011 2.841v0c-0.665 1.297-1.482 2.378-2.452 3.245-0.961 0.863-2.039 1.392-3.235 1.586-1.193 0.203-2.475-0.046-3.844-0.748v0l-5.275-2.704c-0.109-0.056-0.182-0.143-0.22-0.262-0.041-0.128-0.034-0.246 0.022-0.354v0l6.865-13.391c0.056-0.109 0.146-0.18 0.27-0.215 0.122-0.044 0.237-0.039 0.345 0.017zM75.333 262.359l4.75 2.436c1.243 0.637 2.391 0.871 3.444 0.703 1.048-0.171 1.997-0.641 2.847-1.408 0.844-0.771 1.565-1.738 2.162-2.902v0c0.424-0.826 0.732-1.666 0.926-2.519 0.191-0.862 0.228-1.692 0.112-2.491-0.119-0.808-0.424-1.55-0.915-2.228-0.49-0.678-1.2-1.255-2.128-1.732v0l-4.75-2.435 0.201-0.102-6.624 12.92zM105.733 258.999v0c0.127 0.047 0.216 0.129 0.267 0.249 0.046 0.111 0.048 0.223 0.006 0.338v0l-3.381 9.253c-0.37 1.012-0.955 1.845-1.757 2.498-0.808 0.65-1.717 1.076-2.729 1.276-1.009 0.194-2.02 0.106-3.032-0.264v0c-1.012-0.37-1.848-0.957-2.507-1.76-0.65-0.808-1.071-1.719-1.263-2.735-0.198-1.018-0.112-2.033 0.258-3.045v0l3.381-9.254c0.042-0.115 0.119-0.198 0.232-0.25 0.109-0.061 0.233-0.066 0.374-0.015v0c0.134 0.049 0.226 0.133 0.276 0.252 0.053 0.113 0.058 0.227 0.016 0.341v0l-3.381 9.254c-0.312 0.853-0.39 1.709-0.235 2.567 0.162 0.86 0.518 1.633 1.07 2.317 0.553 0.678 1.25 1.171 2.09 1.478v0c0.853 0.312 1.707 0.385 2.56 0.222 0.856-0.171 1.623-0.533 2.302-1.086 0.678-0.553 1.173-1.256 1.485-2.11v0l3.382-9.253c0.042-0.115 0.119-0.198 0.232-0.251 0.109-0.061 0.227-0.069 0.354-0.022zM120.579 263.613v0c0.099 0.119 0.142 0.236 0.131 0.352-0.01 0.109-0.065 0.215-0.164 0.318v0c-0.096 0.09-0.201 0.126-0.315 0.107-0.114-0.018-0.214-0.068-0.3-0.15v0c-0.534-0.569-1.14-1.06-1.82-1.474-0.679-0.414-1.432-0.712-2.26-0.894v0c-0.953-0.21-1.879-0.231-2.777-0.061-0.903 0.162-1.737 0.495-2.5 0.999-0.762 0.498-1.419 1.148-1.972 1.95-0.55 0.795-0.942 1.718-1.174 2.77v0c-0.232 1.052-0.267 2.058-0.103 3.018 0.165 0.953 0.488 1.815 0.97 2.588 0.48 0.779 1.096 1.436 1.845 1.969 0.745 0.525 1.594 0.893 2.547 1.104v0c0.827 0.183 1.633 0.229 2.416 0.137 0.784-0.091 1.533-0.276 2.247-0.555v0c0.122-0.049 0.241-0.054 0.358-0.015 0.116 0.04 0.199 0.12 0.248 0.242v0c0.049 0.122 0.054 0.241 0.015 0.357-0.04 0.116-0.12 0.199-0.242 0.249v0c-0.413 0.173-0.917 0.318-1.513 0.436-0.589 0.12-1.203 0.182-1.842 0.187-0.64 0.005-1.264-0.06-1.873-0.195v0c-1.072-0.237-2.031-0.657-2.877-1.259-0.844-0.61-1.545-1.351-2.102-2.224-0.556-0.879-0.928-1.85-1.117-2.912-0.196-1.064-0.166-2.175 0.09-3.333v0c0.256-1.158 0.696-2.179 1.321-3.061 0.619-0.884 1.364-1.604 2.237-2.161 0.874-0.564 1.822-0.944 2.845-1.142 1.021-0.191 2.068-0.168 3.14 0.068v0c0.907 0.2 1.748 0.525 2.523 0.973 0.781 0.457 1.453 0.994 2.018 1.612zM125.829 278.823v0c-0.135-0.014-0.238-0.069-0.31-0.165-0.078-0.104-0.11-0.216-0.098-0.338v0l1.55-14.875 0.91 0.094-1.55 14.876c-0.013 0.121-0.068 0.225-0.165 0.31-0.104 0.078-0.216 0.11-0.337 0.098zM132.905 264.38l-11.023-1.149c-0.121-0.013-0.222-0.064-0.301-0.154-0.086-0.091-0.123-0.197-0.109-0.318v0c0.013-0.121 0.07-0.218 0.173-0.289 0.097-0.079 0.206-0.111 0.327-0.098v0l11.023 1.148c0.121 0.013 0.225 0.068 0.31 0.165 0.079 0.09 0.112 0.196 0.099 0.318v0c-0.014 0.135-0.069 0.235-0.164 0.299-0.102 0.064-0.214 0.09-0.335 0.078zM139.636 279.719v0c-1.186 0.016-2.206-0.183-3.059-0.6-0.846-0.409-1.664-1.012-2.455-1.807v0c-0.034-0.034-0.064-0.075-0.091-0.123-0.034-0.054-0.05-0.129-0.05-0.223v0c0-0.122 0.055-0.237 0.164-0.346 0.109-0.115 0.224-0.172 0.346-0.171v0c0.136 0 0.264 0.069 0.386 0.204v0c0.608 0.7 1.318 1.235 2.13 1.604 0.812 0.369 1.659 0.554 2.54 0.557v0c0.773 0.003 1.465-0.121 2.075-0.37 0.604-0.249 1.083-0.607 1.437-1.073 0.354-0.46 0.532-1.001 0.534-1.625v0c-0.018-0.773-0.229-1.397-0.634-1.872-0.412-0.469-0.939-0.857-1.582-1.165-0.643-0.307-1.323-0.591-2.041-0.85v0c-0.562-0.219-1.114-0.441-1.655-0.667-0.548-0.232-1.042-0.512-1.482-0.838-0.44-0.327-0.787-0.738-1.043-1.234-0.263-0.496-0.393-1.11-0.391-1.841v0c0.002-0.746 0.208-1.416 0.617-2.012 0.402-0.602 0.98-1.081 1.733-1.438 0.754-0.35 1.649-0.523 2.686-0.52v0c0.868 0.003 1.711 0.162 2.53 0.476 0.819 0.314 1.462 0.784 1.927 1.41v0c0.155 0.211 0.233 0.37 0.233 0.478v0c0 0.102-0.058 0.207-0.174 0.315-0.116 0.108-0.241 0.162-0.377 0.161v0c-0.122 0-0.22-0.048-0.294-0.143v0c-0.277-0.36-0.608-0.676-0.994-0.949-0.386-0.266-0.822-0.47-1.309-0.614-0.481-0.151-0.996-0.227-1.545-0.229v0c-0.746-0.002-1.424 0.117-2.035 0.36-0.604 0.242-1.09 0.586-1.457 1.032-0.368 0.453-0.552 1.005-0.554 1.655v0c-0.002 0.698 0.196 1.272 0.594 1.721 0.405 0.449 0.919 0.823 1.542 1.123 0.623 0.3 1.259 0.574 1.908 0.82v0c0.576 0.198 1.148 0.417 1.717 0.656 0.575 0.232 1.093 0.526 1.552 0.88 0.46 0.354 0.828 0.796 1.104 1.325 0.269 0.536 0.403 1.204 0.4 2.004v0c-0.002 0.705-0.204 1.352-0.606 1.94-0.409 0.595-0.976 1.071-1.702 1.428-0.733 0.364-1.608 0.551-2.625 0.561zM157.517 262.99l0.359 0.129-3.488 15.208c-0.02 0.092-0.063 0.171-0.129 0.236-0.065 0.065-0.142 0.104-0.228 0.118v0c-0.154 0.024-0.274 0.004-0.359-0.058-0.085-0.062-0.146-0.146-0.183-0.25v0c-0.023-0.058-0.025-0.137-0.005-0.236v0l3.761-15.846c0.028-0.128 0.073-0.217 0.133-0.268 0.062-0.044 0.146-0.074 0.254-0.09v0c0.121-0.019 0.222-0.007 0.303 0.035 0.081 0.036 0.142 0.098 0.184 0.188v0l8.368 13.977c0.021 0.045 0.037 0.104 0.048 0.178v0c0.022 0.141-0.009 0.255-0.091 0.343-0.076 0.087-0.181 0.141-0.315 0.161v0c-0.107 0.017-0.205 0.004-0.293-0.037-0.095-0.04-0.163-0.102-0.204-0.184v0zM163.054 272.28l-7.848 1.209 0.183-0.943 7.296-1.125zM170.655 275.685v0c-0.144 0.039-0.267 0.026-0.368-0.038-0.11-0.069-0.18-0.162-0.212-0.28v0l-3.903-14.533c-0.032-0.118-0.013-0.232 0.056-0.341 0.06-0.115 0.15-0.188 0.268-0.219v0l5.813-1.561c0.864-0.232 1.67-0.262 2.418-0.091 0.748 0.171 1.386 0.509 1.914 1.012 0.528 0.504 0.894 1.135 1.098 1.895v0c0.181 0.674 0.223 1.316 0.127 1.924-0.096 0.608-0.312 1.151-0.647 1.626-0.335 0.476-0.759 0.871-1.272 1.184v0l-1.069 0.098c0.589-0.158 1.189-0.158 1.801 0 0.611 0.159 1.161 0.481 1.649 0.968 0.497 0.491 0.858 1.156 1.083 1.994v0c0.193 0.72 0.373 1.258 0.539 1.613 0.166 0.356 0.328 0.607 0.486 0.754 0.159 0.147 0.324 0.253 0.497 0.319v0c0.101 0.036 0.186 0.09 0.254 0.164 0.069 0.073 0.102 0.173 0.101 0.299v0c-0.002 0.099-0.028 0.183-0.079 0.253-0.051 0.07-0.111 0.121-0.18 0.153-0.075 0.034-0.161 0.04-0.259 0.017v0c-0.235-0.063-0.485-0.186-0.751-0.367-0.258-0.176-0.517-0.489-0.778-0.938-0.261-0.449-0.512-1.122-0.753-2.019v0c-0.186-0.694-0.442-1.215-0.767-1.563-0.32-0.356-0.677-0.601-1.071-0.734-0.385-0.128-0.778-0.18-1.179-0.157-0.392 0.028-0.743 0.084-1.05 0.167v0l-5.352 1.437 0.125-0.318 1.804 6.716c0.032 0.118 0.017 0.234-0.043 0.349-0.062 0.108-0.162 0.18-0.3 0.217zM169.094 268.03l-0.282-0.188 5.656-1.519c0.573-0.217 1.07-0.537 1.491-0.958 0.425-0.43 0.723-0.952 0.895-1.567 0.172-0.615 0.161-1.282-0.033-2.002v0c-0.239-0.89-0.759-1.547-1.561-1.97-0.795-0.425-1.736-0.492-2.822-0.2v0l-5.332 1.431 0.066-0.186zM179.901 256.209v0l8.011-3.132c0.107-0.042 0.222-0.036 0.346 0.018 0.114 0.05 0.193 0.132 0.238 0.246v0c0.049 0.126 0.049 0.246-0.001 0.36-0.059 0.11-0.142 0.186-0.25 0.229v0l-7.755 3.031 0.067-0.441 2.573 6.581-0.361-0.197 6.837-2.672c0.114-0.044 0.228-0.042 0.342 0.008 0.117 0.056 0.196 0.138 0.238 0.245v0c0.052 0.133 0.052 0.253-0.001 0.361-0.052 0.108-0.136 0.184-0.249 0.228v0l-6.8 2.658 0.12-0.309 2.632 6.733-0.13-0.08 7.633-2.983c0.107-0.042 0.222-0.036 0.345 0.017 0.114 0.05 0.193 0.132 0.238 0.246v0c0.049 0.126 0.049 0.246-0.001 0.36-0.059 0.11-0.142 0.186-0.249 0.229v0l-8.012 3.131c-0.114 0.044-0.228 0.042-0.341-0.008-0.123-0.054-0.207-0.138-0.251-0.251v0l-5.479-14.015c-0.044-0.114-0.038-0.229 0.018-0.346 0.048-0.12 0.128-0.203 0.242-0.247zM203.857 262.677v0c-0.129 0.075-0.25 0.096-0.366 0.061-0.124-0.037-0.217-0.109-0.278-0.214v0l-7.604-12.985c-0.062-0.105-0.074-0.22-0.037-0.344 0.028-0.126 0.095-0.22 0.2-0.282v0l5.194-3.042c0.772-0.452 1.541-0.695 2.308-0.727 0.766-0.033 1.471 0.124 2.114 0.471 0.643 0.346 1.163 0.859 1.56 1.537v0c0.353 0.602 0.563 1.21 0.631 1.822 0.068 0.612 0.003 1.192-0.195 1.74-0.198 0.548-0.502 1.04-0.914 1.478v0l-1.005 0.376c0.526-0.308 1.105-0.467 1.737-0.475 0.631-0.008 1.247 0.157 1.847 0.497 0.609 0.342 1.133 0.888 1.571 1.637v0c0.377 0.643 0.692 1.115 0.946 1.414 0.254 0.299 0.477 0.499 0.668 0.598 0.192 0.1 0.38 0.159 0.563 0.177v0c0.107 0.008 0.203 0.038 0.289 0.09 0.085 0.052 0.144 0.139 0.177 0.262v0c0.025 0.096 0.021 0.184-0.01 0.265-0.031 0.081-0.075 0.146-0.133 0.196-0.063 0.053-0.145 0.081-0.245 0.084v0c-0.243 0.001-0.517-0.051-0.822-0.155-0.295-0.102-0.628-0.335-0.998-0.699-0.37-0.364-0.79-0.947-1.26-1.749v0c-0.363-0.62-0.747-1.055-1.153-1.304-0.403-0.259-0.812-0.4-1.226-0.425-0.406-0.022-0.798 0.032-1.179 0.16-0.371 0.131-0.694 0.277-0.969 0.438v0l-4.782 2.8 0.037-0.339 3.515 6.001c0.062 0.105 0.078 0.221 0.05 0.347-0.032 0.121-0.109 0.217-0.231 0.289zM200.328 255.706l-0.322-0.106 5.054-2.959c0.496-0.361 0.89-0.8 1.184-1.318 0.296-0.527 0.446-1.11 0.449-1.748 0.003-0.638-0.183-1.279-0.56-1.922v0c-0.466-0.795-1.141-1.291-2.026-1.489-0.879-0.2-1.804-0.016-2.775 0.553v0l-4.764 2.79 0.014-0.197zM222.906 239.6v0c0.748 0.964 1.283 1.956 1.604 2.977 0.321 1.021 0.433 2.028 0.338 3.02-0.092 0.998-0.381 1.935-0.868 2.811-0.492 0.88-1.177 1.661-2.055 2.343v0c-0.878 0.682-1.802 1.15-2.771 1.405-0.975 0.259-1.957 0.31-2.946 0.152-0.986-0.153-1.933-0.511-2.843-1.075-0.91-0.564-1.739-1.327-2.487-2.291v0c-0.744-0.958-1.277-1.948-1.598-2.969-0.321-1.021-0.436-2.03-0.344-3.028 0.092-0.998 0.384-1.937 0.876-2.817 0.487-0.876 1.169-1.655 2.047-2.337v0c0.878-0.682 1.804-1.152 2.779-1.412 0.969-0.255 1.949-0.303 2.938-0.145 0.99 0.158 1.939 0.519 2.849 1.083 0.91 0.564 1.737 1.325 2.481 2.283zM222.152 240.186v0c-0.894-1.151-1.903-1.985-3.026-2.503-1.119-0.513-2.259-0.704-3.42-0.575-1.161 0.129-2.258 0.595-3.292 1.398v0c-1.017 0.79-1.735 1.734-2.153 2.83-0.418 1.097-0.52 2.253-0.305 3.469 0.224 1.216 0.783 2.4 1.676 3.551v0c0.894 1.151 1.903 1.985 3.026 2.503 1.124 0.508 2.27 0.696 3.437 0.563 1.166-0.134 2.258-0.595 3.275-1.386v0c1.033-0.802 1.756-1.75 2.169-2.843 0.413-1.093 0.509-2.245 0.289-3.456-0.224-1.216-0.783-2.4-1.676-3.551zM228.695 224.272v0c0.153-0.02 0.276 0.006 0.366 0.078 0.087 0.067 0.147 0.17 0.181 0.308v0c0.024 0.129-0.001 0.237-0.077 0.324-0.076 0.087-0.172 0.144-0.287 0.174v0c-0.766 0.147-1.506 0.396-2.219 0.749-0.713 0.353-1.368 0.83-1.964 1.431v0c-0.688 0.693-1.2 1.464-1.537 2.314-0.347 0.85-0.511 1.732-0.493 2.648 0.013 0.911 0.211 1.813 0.593 2.708 0.377 0.89 0.948 1.715 1.713 2.473v0c0.765 0.759 1.596 1.326 2.495 1.702 0.893 0.37 1.795 0.559 2.705 0.564 0.915 0.011 1.799-0.158 2.651-0.506 0.842-0.348 1.607-0.869 2.294-1.562v0c0.597-0.601 1.066-1.258 1.409-1.968 0.342-0.711 0.586-1.443 0.732-2.196v0c0.023-0.13 0.083-0.233 0.179-0.309 0.096-0.077 0.208-0.104 0.337-0.081v0c0.13 0.023 0.233 0.083 0.31 0.179 0.077 0.096 0.104 0.208 0.081 0.337v0c-0.075 0.441-0.222 0.945-0.44 1.512-0.213 0.562-0.489 1.114-0.828 1.657-0.338 0.543-0.727 1.036-1.166 1.478v0c-0.773 0.779-1.641 1.365-2.603 1.757-0.967 0.387-1.968 0.583-3.003 0.587-1.04-0.001-2.059-0.205-3.058-0.614-1.003-0.404-1.926-1.023-2.768-1.858v0c-0.842-0.835-1.469-1.753-1.88-2.754-0.416-0.995-0.626-2.011-0.63-3.045-0.009-1.04 0.177-2.045 0.556-3.015 0.384-0.965 0.963-1.837 1.737-2.617v0c0.654-0.659 1.378-1.196 2.172-1.611 0.804-0.415 1.617-0.696 2.442-0.844zM248.792 222.52v0c-0.076 0.096-0.181 0.147-0.315 0.153v0l-10.967 0.131-0.122-1.028 11.033-0.066c0.13-0.001 0.238 0.032 0.323 0.099v0c0.144 0.113 0.2 0.244 0.169 0.393-0.027 0.143-0.067 0.249-0.121 0.318zM235.99 212.942v0c0.076-0.096 0.178-0.149 0.307-0.159 0.124-0.015 0.234 0.016 0.329 0.091v0c0.096 0.076 0.151 0.175 0.166 0.299v0l1.196 14.475-0.9-0.451-1.188-13.911c-0.016-0.133 0.014-0.248 0.09-0.344zM241.854 231.137v0c-0.092 0.117-0.198 0.18-0.318 0.19-0.129 0.01-0.247-0.026-0.353-0.111v0l-11.784-9.292c-0.106-0.084-0.165-0.19-0.175-0.32-0.02-0.128 0.012-0.245 0.096-0.352v0c0.088-0.112 0.197-0.173 0.325-0.183 0.124-0.015 0.239 0.02 0.346 0.104v0l11.783 9.293c0.098 0.095 0.157 0.206 0.177 0.334 0.01 0.129-0.022 0.242-0.097 0.337zM237.868 209.682v0l4.542-7.304c0.061-0.098 0.157-0.162 0.288-0.193 0.121-0.028 0.234-0.01 0.337 0.054v0c0.115 0.072 0.187 0.168 0.215 0.29 0.019 0.124-0.002 0.234-0.063 0.332v0l-4.397 7.071-0.21-0.394 6.001 3.732-0.408 0.058 3.877-6.234c0.064-0.104 0.157-0.17 0.279-0.198 0.127-0.025 0.24-0.007 0.337 0.055v0c0.121 0.075 0.193 0.172 0.215 0.289 0.023 0.118 0.002 0.228-0.063 0.332v0l-3.855 6.199-0.089-0.319 6.139 3.818-0.152 0.013 4.328-6.959c0.061-0.098 0.157-0.162 0.287-0.192 0.121-0.028 0.234-0.01 0.338 0.054v0c0.115 0.072 0.187 0.168 0.215 0.289 0.019 0.124-0.002 0.234-0.063 0.333v0l-4.543 7.304c-0.064 0.104-0.157 0.17-0.278 0.198-0.131 0.03-0.248 0.013-0.352-0.051v0l-12.778-7.947c-0.104-0.064-0.168-0.16-0.193-0.287-0.034-0.125-0.019-0.239 0.046-0.343zM259.895 202.674v0c-0.058 0.122-0.145 0.201-0.259 0.237-0.124 0.039-0.24 0.032-0.351-0.021v0l-13.494-6.448 0.394-0.826 13.495 6.448c0.11 0.053 0.189 0.139 0.236 0.26 0.039 0.124 0.032 0.24-0.021 0.35zM248.661 191.165l-4.778 10c-0.053 0.11-0.135 0.187-0.246 0.231-0.114 0.051-0.227 0.05-0.336-0.003v0c-0.11-0.053-0.181-0.139-0.214-0.26-0.042-0.117-0.036-0.231 0.016-0.341v0l4.778-10c0.053-0.11 0.139-0.189 0.26-0.236 0.111-0.044 0.222-0.04 0.332 0.012v0c0.122 0.058 0.198 0.143 0.227 0.255 0.026 0.118 0.013 0.232-0.039 0.342zM265.369 189.967v0c-0.382 1.123-0.912 2.017-1.591 2.68-0.669 0.66-1.511 1.229-2.525 1.707v0c-0.043 0.02-0.092 0.035-0.146 0.045-0.063 0.014-0.138 0.004-0.228-0.028v0c-0.115-0.041-0.205-0.131-0.27-0.27-0.072-0.141-0.087-0.269-0.046-0.384v0c0.046-0.128 0.153-0.226 0.322-0.295v0c0.863-0.338 1.605-0.828 2.225-1.469 0.62-0.642 1.078-1.377 1.376-2.206v0c0.261-0.727 0.377-1.42 0.348-2.079-0.032-0.653-0.208-1.224-0.529-1.714-0.315-0.488-0.765-0.837-1.352-1.048v0c-0.734-0.242-1.393-0.252-1.977-0.03-0.58 0.231-1.122 0.598-1.628 1.1-0.505 0.503-1 1.049-1.485 1.638v0c-0.394 0.456-0.789 0.901-1.183 1.336-0.403 0.439-0.832 0.81-1.287 1.115-0.455 0.305-0.959 0.494-1.512 0.569-0.555 0.081-1.177-0.002-1.866-0.249v0c-0.702-0.252-1.264-0.671-1.688-1.256-0.432-0.58-0.69-1.285-0.773-2.115-0.077-0.827 0.06-1.729 0.41-2.704v0c0.294-0.816 0.726-1.558 1.297-2.224 0.571-0.666 1.229-1.114 1.974-1.344v0c0.25-0.076 0.427-0.095 0.528-0.058v0c0.096 0.034 0.175 0.124 0.239 0.269 0.063 0.145 0.072 0.281 0.025 0.409v0c-0.041 0.115-0.119 0.191-0.233 0.23v0c-0.432 0.14-0.841 0.346-1.227 0.617-0.379 0.274-0.719 0.617-1.018 1.028-0.303 0.402-0.548 0.862-0.733 1.379v0c-0.252 0.702-0.367 1.381-0.344 2.037 0.026 0.65 0.187 1.223 0.484 1.719 0.304 0.498 0.761 0.857 1.374 1.078v0c0.657 0.236 1.264 0.242 1.82 0.016 0.559-0.231 1.084-0.59 1.575-1.075 0.492-0.486 0.962-0.994 1.412-1.524v0c0.38-0.476 0.778-0.941 1.194-1.397 0.412-0.464 0.861-0.854 1.349-1.168 0.488-0.315 1.027-0.513 1.619-0.596 0.596-0.074 1.27 0.024 2.022 0.295v0c0.663 0.238 1.205 0.646 1.625 1.222 0.424 0.585 0.682 1.279 0.774 2.083 0.097 0.813-0.02 1.7-0.351 2.661zM263.649 180.875v0c-0.059 0.202-0.207 0.275-0.445 0.22v0l-10.235-2.853c-0.208-0.061-0.367-0.135-0.476-0.223-0.108-0.088-0.135-0.226-0.08-0.415v0c0.055-0.189 0.152-0.291 0.291-0.307 0.139-0.016 0.312 0.006 0.52 0.067v0l10.17 3.077c0.231 0.081 0.315 0.226 0.255 0.434zM267.754 182.017l-0.026 0.088c-0.055 0.189-0.163 0.316-0.323 0.382-0.16 0.066-0.338 0.071-0.534 0.014v0l-0.497-0.144c-0.202-0.059-0.353-0.159-0.453-0.302-0.093-0.14-0.113-0.305-0.057-0.493v0l0.025-0.088c0.059-0.202 0.164-0.333 0.316-0.395 0.157-0.053 0.336-0.05 0.538 0.008v0l0.498 0.145c0.195 0.057 0.345 0.15 0.448 0.279 0.102 0.136 0.123 0.304 0.065 0.506zM7.885 144.968c0-1.681 1.362-3.043 3.043-3.043 1.681 0 3.043 1.362 3.043 3.043 0 1.681-1.362 3.043-3.043 3.043-1.681 0-3.043-1.362-3.043-3.043zM263.852 144.968c0-1.681 1.362-3.043 3.043-3.043 1.681 0 3.043 1.362 3.043 3.043 0 1.681-1.362 3.043-3.043 3.043-1.681 0-3.043-1.362-3.043-3.043z" fill="#ee3e38" data-fill-palette-color="primary"></path></svg></g></svg></g></svg></g></svg></g></svg><rect width="279.72" height="279.72" fill="none" stroke="none" visibility="hidden"></rect></g></svg></g></svg>